<svg width="49" height="49" viewBox="0 0 49 49" fill="none" xmlns="http://www.w3.org/2000/svg">
<g filter="url(#filter0_d_234_734)">
<path d="M32.9673 36.5908C32.2097 36.5908 31.6304 37.1639 31.6304 37.9134C31.6304 38.6629 32.2097 39.236 32.9673 39.236C33.7249 39.236 34.3043 38.6629 34.3043 37.9134C34.3043 37.1639 33.7249 36.5908 32.9673 36.5908ZM32.9673 38.3543C32.6999 38.3543 32.5217 38.1779 32.5217 37.9134C32.5217 37.6489 32.6999 37.4725 32.9673 37.4725C33.2347 37.4725 33.413 37.6489 33.413 37.9134C33.413 38.1779 33.2347 38.3543 32.9673 38.3543Z" fill="white"/>
<path d="M18.2608 36.5908C17.5032 36.5908 16.9238 37.1639 16.9238 37.9134C16.9238 38.6629 17.5032 39.236 18.2608 39.236C19.0184 39.236 19.5977 38.6629 19.5977 37.9134C19.5977 37.1639 19.0184 36.5908 18.2608 36.5908ZM18.2608 38.3543C17.9934 38.3543 17.8151 38.1779 17.8151 37.9134C17.8151 37.6489 17.9934 37.4725 18.2608 37.4725C18.5282 37.4725 18.7064 37.6489 18.7064 37.9134C18.7064 38.1779 18.5282 38.3543 18.2608 38.3543Z" fill="white"/>
<path d="M26.7283 23.3662H22.0936C21.3359 23.3662 20.6675 23.8952 20.4892 24.6447L19.1522 30.3318C19.1077 30.4641 19.1522 30.5963 19.2414 30.6845C19.3305 30.7727 19.4642 30.8608 19.5979 30.8608H26.7283C26.9957 30.8608 27.174 30.6845 27.174 30.42V23.8071C27.174 23.5426 26.9957 23.3662 26.7283 23.3662ZM26.2827 29.9791H20.1772L21.3805 24.821C21.4696 24.4684 21.737 24.2479 22.0936 24.2479H26.2827V29.9791Z" fill="white"/>
<path d="M32.5216 23.3662H28.9564C28.689 23.3662 28.5107 23.5426 28.5107 23.8071V30.42C28.5107 30.6845 28.689 30.8608 28.9564 30.8608H34.2151C34.3488 30.8608 34.4379 30.8167 34.527 30.7286C34.6162 30.6404 34.6607 30.5081 34.6607 30.3759L34.1705 24.821C34.0814 23.9834 33.3684 23.3662 32.5216 23.3662ZM29.402 29.9791V24.2479H32.5216C32.9227 24.2479 33.2347 24.5565 33.2792 24.9092L33.7249 29.9791H29.402Z" fill="white"/>
<path d="M25.8368 20.7216H29.402C29.6694 20.7216 29.8476 20.5452 29.8476 20.2807C29.8476 20.0162 29.6694 19.8398 29.402 19.8398H25.8368C25.5694 19.8398 25.3911 20.0162 25.3911 20.2807C25.3911 20.5452 25.5694 20.7216 25.8368 20.7216Z" fill="white"/>
<path d="M45 20.2796C45 15.7387 43.4848 11.5065 40.9 8.11183C40.9 8.06774 40.8554 8.06774 40.8554 8.02366C37.112 3.17419 31.1848 0 24.5 0C13.1804 0 4 9.08172 4 20.2796C4 26.3634 6.67391 32.0065 11.3978 35.886C10.9522 36.1065 10.6848 36.5473 10.6848 37.0323C10.6848 37.7817 11.2641 38.3548 12.0217 38.3548H14.25H15.1859C15.4087 39.8538 16.7011 41 18.2609 41C19.8207 41 21.113 39.8538 21.3359 38.3548H29.8924C30.1152 39.8538 31.4076 41 32.9674 41C34.5272 41 35.8196 39.8538 36.0424 38.3548H37.2902C37.8696 38.3548 38.3152 37.914 38.3152 37.3409V35.2688C42.5489 31.4333 45 25.9667 45 20.2796ZM43.0837 26.4516H40.5435C39.7859 26.4516 39.2065 25.8785 39.2065 25.129C39.2065 23.8946 38.2261 22.9247 36.9783 22.9247H35.6413C35.5967 22.9247 35.5967 22.9247 35.5522 22.9247C35.1511 22.3957 34.5272 21.9548 33.8587 21.7344V19.3979C33.8587 18.6484 33.2793 18.0753 32.5217 18.0753H27.1739V17.1935C27.1739 16.7086 27.575 16.3118 28.0652 16.3118H36.087C37.0674 16.3118 37.8696 15.5183 37.8696 14.5484C37.8696 13.5785 37.0674 12.7849 36.087 12.7849H35.1957C34.7054 12.7849 34.3043 12.3882 34.3043 11.9032V9.69893C34.3043 9.21398 34.7054 8.8172 35.1957 8.8172H40.3207C42.7272 12.0355 44.1087 16.0032 44.1087 20.2796C44.1087 22.3957 43.7522 24.4677 43.0837 26.4516ZM32.5217 18.957C32.7891 18.957 32.9674 19.1333 32.9674 19.3979V21.6021H32.7891H22.2717V19.3979C22.2717 19.1333 22.45 18.957 22.7174 18.957H32.5217ZM13.2696 4.4086C13.3141 4.4086 13.3141 4.4086 13.3587 4.4086H20.712C21.5587 4.4086 22.2717 5.11398 22.2717 5.95161C22.2717 7.27419 23.3859 8.37634 24.7228 8.37634H27.8424C28.6891 8.37634 29.4022 9.08172 29.4022 9.91935V10.8011C29.4022 11.6387 28.6891 12.3441 27.8424 12.3441H21.6033C20.2663 12.3441 19.1522 13.4462 19.1522 14.7688V15.6505C19.1522 16.4882 18.4391 17.1935 17.5924 17.1935H5.1587C6.00543 11.9032 9.03587 7.36237 13.2696 4.4086ZM7.56522 29.9785C5.87174 27.2011 4.98043 24.0269 4.8913 20.7204H10.0163C10.6402 20.7204 11.1304 21.2054 11.1304 21.8226C11.1304 22.9247 12.0217 23.8065 13.1359 23.8065H15.3641C15.988 23.8065 16.4783 24.2914 16.4783 24.9086V25.3495C16.4783 25.9667 15.988 26.4516 15.3641 26.4516H10.9076C9.79348 26.4516 8.90217 27.3333 8.90217 28.4355V28.8763C8.90217 29.4935 8.41196 29.9785 7.78804 29.9785H7.56522ZM8.05544 30.8161C9.03587 30.6839 9.79348 29.8462 9.79348 28.8763V28.4355C9.79348 27.8183 10.2837 27.3333 10.9076 27.3333H15.3641C16.4783 27.3333 17.3696 26.4516 17.3696 25.3495V24.9086C17.3696 23.8065 16.4783 22.9247 15.3641 22.9247H13.1359C12.512 22.9247 12.0217 22.4398 12.0217 21.8226C12.0217 20.7204 11.1304 19.8387 10.0163 19.8387H4.8913C4.8913 19.2656 4.93587 18.6484 5.025 18.0753H17.5924C18.9293 18.0753 20.0435 16.9731 20.0435 15.6505V14.7688C20.0435 13.9312 20.7565 13.2258 21.6033 13.2258H27.8424C29.1793 13.2258 30.2935 12.1237 30.2935 10.8011V9.91935C30.2935 8.59677 29.1793 7.49462 27.8424 7.49462H24.7228C23.8761 7.49462 23.163 6.78925 23.163 5.95161C23.163 4.62903 22.0489 3.52688 20.712 3.52688H14.6511C17.5478 1.85161 20.8902 0.88172 24.5 0.88172C30.5609 0.88172 35.9978 3.61505 39.6076 7.93548H35.1957C34.2152 7.93548 33.413 8.72903 33.413 9.69893V11.9032C33.413 12.8731 34.2152 13.6667 35.1957 13.6667H36.087C36.5772 13.6667 36.9783 14.0634 36.9783 14.5484C36.9783 15.0333 36.5772 15.4301 36.087 15.4301H28.0652C27.0848 15.4301 26.2826 16.2237 26.2826 17.1935V18.0753H22.7174C21.9598 18.0753 21.3804 18.6484 21.3804 19.3979V21.6462C19.9543 21.8226 18.7957 22.7925 18.4391 24.2032L17.1022 29.4935C17.013 29.7581 16.8348 29.9785 16.5228 30.0226L12.8239 30.8161C12.0663 30.9925 11.5315 31.6538 11.5315 32.4032V34.872C10.1946 33.6817 9.03587 32.3151 8.05544 30.8161ZM13.8043 31.5215V32.4914C13.8043 32.5796 13.7598 32.6237 13.6707 32.6237H12.4674V32.4032C12.4674 32.0505 12.6902 31.786 13.0467 31.6978L13.8043 31.5215ZM12.0217 37.4731C11.7543 37.4731 11.5761 37.2968 11.5761 37.0323C11.5761 36.7677 11.7543 36.5914 12.0217 36.5914H13.8043V37.4731H12.0217ZM18.2609 40.1183C17.013 40.1183 16.0326 39.1484 16.0326 37.914C16.0326 36.6796 17.013 35.7097 18.2609 35.7097C19.5087 35.7097 20.4891 36.6796 20.4891 37.914C20.4891 39.1484 19.5087 40.1183 18.2609 40.1183ZM32.9674 40.1183C31.7196 40.1183 30.7391 39.1484 30.7391 37.914C30.7391 36.6796 31.7196 35.7097 32.9674 35.7097C34.2152 35.7097 35.1957 36.6796 35.1957 37.914C35.1957 39.1484 34.2152 40.1183 32.9674 40.1183ZM37.2902 37.4731H36.0424C35.8196 35.9742 34.5272 34.828 32.9674 34.828C31.4076 34.828 30.1152 35.9742 29.8924 37.4731H21.3359C21.113 35.9742 19.8207 34.828 18.2609 34.828C16.7011 34.828 15.4087 35.9742 15.1859 37.4731H14.6957V36.1505C14.6957 35.886 14.5174 35.7097 14.25 35.7097H12.4674V33.5054H13.6707C14.25 33.5054 14.6957 33.0645 14.6957 32.4914V31.3011L16.7457 30.8602C17.3696 30.728 17.8152 30.2871 17.9935 29.6699L19.3304 24.3796C19.5978 23.2333 20.6228 22.4839 21.8261 22.4839H32.7891C34.0815 22.4839 35.1957 23.4538 35.3293 24.7323L35.9087 29.9785C35.9533 30.3753 36.2207 30.6839 36.5772 30.8161L37.3348 31.1247C37.3793 31.1688 37.4239 31.2129 37.4239 31.257V31.3011H36.9783C36.2207 31.3011 35.6413 31.8742 35.6413 32.6237V33.0645C35.6413 33.814 36.2207 34.3871 36.9783 34.3871H37.4239V37.3409C37.4239 37.3849 37.3793 37.4731 37.2902 37.4731ZM37.4239 32.1828V33.5054H36.9783C36.7109 33.5054 36.5326 33.329 36.5326 33.0645V32.6237C36.5326 32.3591 36.7109 32.1828 36.9783 32.1828H37.4239ZM38.3152 34.0344V31.257C38.3152 30.8161 38.0478 30.4634 37.6467 30.2871L36.8891 29.9785C36.8446 29.9785 36.8 29.8903 36.8 29.8462L36.2207 24.6C36.1761 24.2914 36.1315 24.0269 35.9978 23.7624H36.9783C37.7359 23.7624 38.3152 24.3355 38.3152 25.0849C38.3152 26.3194 39.2957 27.2892 40.5435 27.2892H42.7717C41.7913 29.8462 40.2761 32.1387 38.3152 34.0344Z" fill="white"/>
</g>
<defs>
<filter id="filter0_d_234_734" x="0" y="0" width="49" height="49" filterUnits="userSpaceOnUse" color-interpolation-filters="sRGB">
<feFlood flood-opacity="0" result="BackgroundImageFix"/>
<feColorMatrix in="SourceAlpha" type="matrix" values="0 0 0 0 0 0 0 0 0 0 0 0 0 0 0 0 0 0 127 0" result="hardAlpha"/>
<feOffset dy="4"/>
<feGaussianBlur stdDeviation="2"/>
<feComposite in2="hardAlpha" operator="out"/>
<feColorMatrix type="matrix" values="0 0 0 0 0 0 0 0 0 0 0 0 0 0 0 0 0 0 0.25 0"/>
<feBlend mode="normal" in2="BackgroundImageFix" result="effect1_dropShadow_234_734"/>
<feBlend mode="normal" in="SourceGraphic" in2="effect1_dropShadow_234_734" result="shape"/>
</filter>
</defs>
</svg>
